<svg xmlns="http://www.w3.org/2000/svg" viewBox="0 0 1600 800"
     shape-rendering="crispEdges" preserveAspectRatio="xMidYMid meet"
     width="1600" height="800" style="background:#04060a">
<title>VynJustHumant — banner</title>
<desc>Banner pixel art retro-futuristik Y2K × prasejarah purba: rawa purba kiri atas, laut purba kanan bawah, dipisahkan seam diagonal neon.</desc>

<defs>
  <linearGradient id="swampSky" x1="0" y1="0" x2="0" y2="1">
    <stop offset="0"    stop-color="#080f09"/>
    <stop offset="0.55" stop-color="#101c12"/>
    <stop offset="1"    stop-color="#1a2a15"/>
  </linearGradient>
  <linearGradient id="oceanDeep" x1="0" y1="0" x2="0" y2="1">
    <stop offset="0"   stop-color="#0d2b46"/>
    <stop offset="0.5" stop-color="#071a2c"/>
    <stop offset="1"   stop-color="#01040a"/>
  </linearGradient>
  <linearGradient id="rayGrad" x1="0" y1="0" x2="0" y2="1">
    <stop offset="0" stop-color="#00ffd5" stop-opacity="0.22"/>
    <stop offset="1" stop-color="#00ffd5" stop-opacity="0"/>
  </linearGradient>
  <radialGradient id="glowCyan" cx="0.5" cy="0.5" r="0.5">
    <stop offset="0" stop-color="#00ffd5" stop-opacity="0.55"/>
    <stop offset="1" stop-color="#00ffd5" stop-opacity="0"/>
  </radialGradient>
  <radialGradient id="glowGrn" cx="0.5" cy="0.5" r="0.5">
    <stop offset="0" stop-color="#39ff14" stop-opacity="0.75"/>
    <stop offset="1" stop-color="#39ff14" stop-opacity="0"/>
  </radialGradient>
  <radialGradient id="vignette" cx="0.5" cy="0.5" r="0.75">
    <stop offset="0.55" stop-color="#000" stop-opacity="0"/>
    <stop offset="1"    stop-color="#000" stop-opacity="0.7"/>
  </radialGradient>

  <filter id="nameGlow" x="-20%" y="-60%" width="140%" height="220%">
    <feGaussianBlur stdDeviation="3.2" result="b"/>
    <feMerge>
      <feMergeNode in="b"/><feMergeNode in="b"/>
      <feMergeNode in="SourceGraphic"/>
    </feMerge>
  </filter>

  <pattern id="scanlines" width="4" height="4" patternUnits="userSpaceOnUse">
    <rect width="4" height="2" fill="#000" opacity="0.14"/>
  </pattern>
  <pattern id="dither" width="4" height="4" patternUnits="userSpaceOnUse">
    <rect width="1" height="1" fill="#fff" opacity="0.05"/>
    <rect x="2" y="2" width="1" height="1" fill="#fff" opacity="0.05"/>
  </pattern>

  <g id="firefly">
    <circle r="7" fill="url(#glowGrn)"/>
    <rect x="-1" y="-1" width="2" height="2" fill="#c8ffb0"/>
  </g>
  <g id="bubble">
    <rect x="-3" y="-3" width="6" height="6" fill="none" stroke="#7fd0e0" stroke-width="1" opacity="0.7"/>
    <rect x="-1" y="-2" width="2" height="2" fill="#c8f4ff" opacity="0.7"/>
  </g>
  <g id="plank">
    <rect x="-1" y="-1" width="2" height="2" fill="#00ffd5" opacity="0.85"/>
  </g>

  <!-- Clip: hanya area rawa (kiri-atas dari diagonal) -->
  <clipPath id="swampClip">
    <polygon points="0,0 1600,0 1600,80 0,720"/>
  </clipPath>
</defs>

<!-- ===================== BASE ===================== -->
<rect width="1600" height="800" fill="#04060a"/>
<polygon points="0,0 1600,0 1600,80 0,720" fill="url(#swampSky)"/>
<polygon points="0,720 1600,80 1600,800 0,800" fill="url(#oceanDeep)"/>

<!-- Neon seam -->
<line x1="0" y1="720" x2="1600" y2="80" stroke="#00ffd5" stroke-width="1.5" opacity="0.55"/>
<line x1="0" y1="723" x2="1600" y2="83" stroke="#ff00aa" stroke-width="0.8" opacity="0.35"/>

<!-- ===================== SWAMP (CLIPPED) ===================== -->
<g clip-path="url(#swampClip)">

  <!-- Fog -->
  <g opacity="0.6">
    <rect y="180" width="1600" height="60" fill="#1a2a15" opacity="0.35">
      <animate attributeName="x" values="0;120;0" dur="24s" repeatCount="indefinite"/>
    </rect>
    <rect y="300" width="1600" height="50" fill="#243a1c" opacity="0.25">
      <animate attributeName="x" values="60;0;60" dur="18s" repeatCount="indefinite"/>
    </rect>
    <rect y="420" width="1600" height="45" fill="#2a4222" opacity="0.22">
      <animate attributeName="x" values="0;80;0" dur="30s" repeatCount="indefinite"/>
    </rect>
  </g>

  <!-- Giant trees -->
  <g opacity="0.85">
    <rect x="96" y="140" width="34" height="380" fill="#1b140c"/>
    <rect x="100" y="150" width="4" height="360" fill="#2a1f12"/>
    <rect x="118" y="150" width="6" height="360" fill="#0e0905"/>
    <rect x="96" y="200" width="12" height="8" fill="#3d5a24"/>
    <rect x="112" y="260" width="10" height="6" fill="#4a6a2a"/>
    <rect x="100" y="320" width="14" height="8" fill="#375020"/>
    <rect x="118" y="400" width="10" height="6" fill="#4a6a2a"/>
    <rect x="60" y="180" width="40" height="6" fill="#1b140c"/>
    <rect x="128" y="220" width="46" height="6" fill="#1b140c"/>
    <rect x="60" y="186" width="3" height="60" fill="#2a1f12"/>
    <rect x="150" y="226" width="3" height="80" fill="#2a1f12"/>
  </g>
  <g>
    <rect x="286" y="200" width="40" height="320" fill="#221810"/>
    <rect x="290" y="210" width="6" height="300" fill="#33240f"/>
    <rect x="318" y="210" width="4" height="300" fill="#0e0905"/>
    <rect x="286" y="280" width="12" height="8" fill="#3d5a24"/>
    <rect x="300" y="340" width="14" height="8" fill="#4a6a2a"/>
    <rect x="286" y="440" width="12" height="10" fill="#375020"/>
    <rect x="326" y="240" width="60" height="6" fill="#221810"/>
    <rect x="240" y="300" width="46" height="6" fill="#221810"/>
    <rect x="384" y="246" width="3" height="70" fill="#33240f"/>
    <rect x="240" y="306" width="3" height="90" fill="#33240f"/>
  </g>
  <g opacity="0.55">
    <rect x="470" y="240" width="26" height="300" fill="#161009"/>
    <rect x="476" y="260" width="4" height="280" fill="#241a0d"/>
  </g>

  <!-- Ferns & horsetails -->
  <g stroke="#2f4d1c" stroke-width="2" fill="none">
    <path d="M40,620 Q70,560 60,500"/>
    <path d="M50,600 Q80,570 90,540"/>
    <path d="M55,580 Q92,556 108,530"/>
    <path d="M58,560 Q100,540 116,516"/>
    <path d="M60,540 Q104,522 122,500"/>
  </g>
  <g stroke="#3f6a26" stroke-width="2" fill="none">
    <path d="M180,600 Q206,540 200,480"/>
    <path d="M188,576 Q222,552 236,520"/>
    <path d="M194,554 Q232,532 250,504"/>
  </g>
  <g fill="#4a7a2c">
    <rect x="90" y="500" width="6" height="4"/>
    <rect x="108" y="528" width="6" height="4"/>
    <rect x="116" y="514" width="6" height="4"/>
    <rect x="236" y="518" width="6" height="4"/>
    <rect x="250" y="502" width="6" height="4"/>
  </g>
  <g fill="#375c20">
    <rect x="150" y="440" width="4" height="180"/>
    <rect x="144" y="452" width="16" height="3"/>
    <rect x="144" y="492" width="16" height="3"/>
    <rect x="144" y="532" width="16" height="3"/>
    <rect x="144" y="572" width="16" height="3"/>
    <rect x="200" y="470" width="4" height="160"/>
    <rect x="194" y="482" width="16" height="3"/>
    <rect x="194" y="522" width="16" height="3"/>
    <rect x="194" y="562" width="16" height="3"/>
  </g>

  <!-- Swamp water surface -->
  <rect x="0" y="580" width="800" height="160" fill="#0f1e14"/>
  <rect x="0" y="580" width="800" height="3" fill="#2e5a3e"/>

  <!-- Reflections -->
  <rect x="30" y="610" width="80" height="2" fill="#39ff14" opacity="0.25">
    <animate attributeName="opacity" values="0.15;0.35;0.15" dur="6s" repeatCount="indefinite"/>
  </rect>
  <rect x="100" y="640" width="60" height="2" fill="#39ff14" opacity="0.2">
    <animate attributeName="opacity" values="0.35;0.15;0.35" dur="7s" repeatCount="indefinite"/>
  </rect>
  <rect x="20" y="670" width="70" height="2" fill="#00ffd5" opacity="0.2">
    <animate attributeName="opacity" values="0.1;0.3;0.1" dur="5.5s" repeatCount="indefinite"/>
  </rect>

  <!-- Bubbles (muncul dari seam) -->
  <use href="#bubble" x="120" y="650">
    <animate attributeName="y" values="650;480" dur="6s" repeatCount="indefinite"/>
    <animate attributeName="x" values="120;126;120" dur="6s" repeatCount="indefinite"/>
    <animate attributeName="opacity" values="0;1;1;0" dur="6s" repeatCount="indefinite"/>
  </use>
  <use href="#bubble" x="280" y="590">
    <animate attributeName="y" values="590;440" dur="7s" begin="1s" repeatCount="indefinite"/>
    <animate attributeName="x" values="280;274;280" dur="7s" begin="1s" repeatCount="indefinite"/>
    <animate attributeName="opacity" values="0;1;1;0" dur="7s" begin="1s" repeatCount="indefinite"/>
  </use>
  <use href="#bubble" x="180" y="630">
    <animate attributeName="y" values="630;450" dur="5s" begin="2s" repeatCount="indefinite"/>
    <animate attributeName="opacity" values="0;1;1;0" dur="5s" begin="2s" repeatCount="indefinite"/>
  </use>

  <!-- Fireflies -->
  <g>
    <use href="#firefly" x="180" y="380">
      <animate attributeName="x" values="180;220;180" dur="9s" repeatCount="indefinite"/>
      <animate attributeName="y" values="380;360;380" dur="7s" repeatCount="indefinite"/>
      <animate attributeName="opacity" values="0.3;1;0.3" dur="3s" repeatCount="indefinite"/>
    </use>
    <use href="#firefly" x="360" y="320">
      <animate attributeName="x" values="360;330;360" dur="11s" repeatCount="indefinite"/>
      <animate attributeName="y" values="320;300;320" dur="6s" repeatCount="indefinite"/>
      <animate attributeName="opacity" values="1;0.2;1" dur="2.7s" repeatCount="indefinite"/>
    </use>
    <use href="#firefly" x="520" y="420">
      <animate attributeName="x" values="520;560;520" dur="10s" repeatCount="indefinite"/>
      <animate attributeName="y" values="420;396;420" dur="8s" repeatCount="indefinite"/>
      <animate attributeName="opacity" values="0.4;1;0.4" dur="3.2s" repeatCount="indefinite"/>
    </use>
    <use href="#firefly" x="640" y="360">
      <animate attributeName="x" values="640;610;640" dur="13s" repeatCount="indefinite"/>
      <animate attributeName="y" values="360;336;360" dur="7.5s" repeatCount="indefinite"/>
      <animate attributeName="opacity" values="1;0.3;1" dur="3.6s" repeatCount="indefinite"/>
    </use>
    <use href="#firefly" x="260" y="500">
      <animate attributeName="x" values="260;300;260" dur="12s" repeatCount="indefinite"/>
      <animate attributeName="y" values="500;478;500" dur="9s" repeatCount="indefinite"/>
      <animate attributeName="opacity" values="0.2;1;0.2" dur="4s" repeatCount="indefinite"/>
    </use>
    <use href="#firefly" x="400" y="500">
      <animate attributeName="x" values="400;370;400" dur="8s" repeatCount="indefinite"/>
      <animate attributeName="y" values="500;480;500" dur="7s" repeatCount="indefinite"/>
      <animate attributeName="opacity" values="0.5;1;0.5" dur="3.8s" repeatCount="indefinite"/>
    </use>
  </g>
</g>

<!-- ===================== OCEAN ===================== -->
<!-- Light rays -->
<g opacity="0.5">
  <polygon points="1000,80 1040,80 1180,800 1100,800" fill="url(#rayGrad)">
    <animate attributeName="opacity" values="0.35;0.65;0.35" dur="9s" repeatCount="indefinite"/>
  </polygon>
  <polygon points="1200,80 1230,80 1400,800 1330,800" fill="url(#rayGrad)">
    <animate attributeName="opacity" values="0.55;0.35;0.55" dur="11s" repeatCount="indefinite"/>
  </polygon>
  <polygon points="1400,80 1420,80 1560,800 1500,800" fill="url(#rayGrad)">
    <animate attributeName="opacity" values="0.3;0.7;0.3" dur="13s" repeatCount="indefinite"/>
  </polygon>
</g>

<!-- Coral & sponges -->
<g>
  <rect x="1300" y="700" width="8" height="60" fill="#3a1f3d"/>
  <rect x="1296" y="720" width="6" height="40" fill="#5a2f5d"/>
  <rect x="1314" y="710" width="6" height="50" fill="#5a2f5d"/>
  <rect x="1320" y="740" width="8" height="24" fill="#ff00aa" opacity="0.6"/>
  <rect x="1288" y="750" width="8" height="18" fill="#ff00aa" opacity="0.5"/>
  <rect x="1296" y="700" width="4" height="8" fill="#ff66cc" opacity="0.7"/>
  <rect x="1420" y="720" width="10" height="50" fill="#1d3a4c"/>
  <rect x="1414" y="740" width="8" height="34" fill="#2a5a72"/>
  <rect x="1438" y="736" width="8" height="40" fill="#2a5a72"/>
  <rect x="1408" y="770" width="10" height="14" fill="#00ffd5" opacity="0.5"/>
  <rect x="1444" y="766" width="10" height="18" fill="#00ffd5" opacity="0.5"/>
  <rect x="1520" y="740" width="30" height="40" fill="#3a2b4e"/>
  <rect x="1524" y="744" width="4" height="4" fill="#0a0a12"/>
  <rect x="1536" y="752" width="4" height="4" fill="#0a0a12"/>
  <rect x="1530" y="764" width="4" height="4" fill="#0a0a12"/>
</g>

<!-- Ammonite swimming -->
<g>
  <animateTransform attributeName="transform" type="translate"
    values="0,0; 8,-12; -6,4; 0,0"
    dur="8s" repeatCount="indefinite" additive="sum"/>
  <g transform="translate(1180,500)">
    <circle r="60" fill="url(#glowCyan)" opacity="0.5"/>
    <g fill="#d4c9a8">
      <rect x="-8" y="-24" width="16" height="6"/>
      <rect x="-16" y="-18" width="6" height="6"/>
      <rect x="10" y="-18" width="6" height="6"/>
      <rect x="-22" y="-12" width="6" height="12"/>
      <rect x="16" y="-12" width="6" height="12"/>
      <rect x="-24" y="0" width="6" height="6"/>
      <rect x="18" y="0" width="6" height="6"/>
      <rect x="-22" y="6" width="6" height="6"/>
      <rect x="16" y="6" width="6" height="6"/>
      <rect x="-16" y="12" width="6" height="6"/>
      <rect x="10" y="12" width="6" height="6"/>
      <rect x="-8" y="18" width="16" height="6"/>
    </g>
    <g fill="#8a7a5c">
      <rect x="-14" y="-20" width="4" height="4"/>
      <rect x="4" y="-20" width="4" height="4"/>
      <rect x="-18" y="-8" width="4" height="4"/>
      <rect x="14" y="-4" width="4" height="4"/>
      <rect x="-8" y="14" width="4" height="4"/>
    </g>
    <g fill="#b5a482">
      <rect x="-26" y="18" width="10" height="3">
        <animate attributeName="x" values="-26;-32;-26" dur="3s" repeatCount="indefinite"/>
      </rect>
      <rect x="-18" y="22" width="12" height="3">
        <animate attributeName="x" values="-18;-22;-18" dur="3s" begin="0.15s" repeatCount="indefinite"/>
      </rect>
      <rect x="-8" y="24" width="12" height="3">
        <animate attributeName="x" values="-8;-12;-8" dur="3s" begin="0.3s" repeatCount="indefinite"/>
      </rect>
      <rect x="4" y="24" width="12" height="3">
        <animate attributeName="x" values="4;0;4" dur="3s" begin="0.45s" repeatCount="indefinite"/>
      </rect>
      <rect x="14" y="22" width="10" height="3">
        <animate attributeName="x" values="14;10;14" dur="3s" begin="0.6s" repeatCount="indefinite"/>
      </rect>
    </g>
    <rect x="-6" y="-6" width="4" height="4" fill="#00ffd5"/>
    <rect x="-4" y="-4" width="2" height="2" fill="#04060a"/>
  </g>
</g>

<!-- Trail -->
<g>
  <circle cx="1100" cy="480" r="3" fill="#00ffd5" opacity="0.6">
    <animate attributeName="opacity" values="0.7;0;0.7" dur="4s" repeatCount="indefinite"/>
    <animate attributeName="cx" values="1100;1080;1100" dur="4s" repeatCount="indefinite"/>
  </circle>
  <circle cx="1070" cy="500" r="2" fill="#00ffd5" opacity="0.5">
    <animate attributeName="opacity" values="0;0.6;0" dur="3.5s" repeatCount="indefinite"/>
  </circle>
  <circle cx="1050" cy="466" r="2" fill="#39ff14" opacity="0.5">
    <animate attributeName="opacity" values="0.5;0;0.5" dur="5s" repeatCount="indefinite"/>
  </circle>
</g>

<!-- Plankton -->
<g>
  <use href="#plank" x="960"  y="300"><animate attributeName="opacity" values="0.2;0.9;0.2" dur="3s" repeatCount="indefinite"/></use>
  <use href="#plank" x="1020" y="380"><animate attributeName="opacity" values="0.9;0.2;0.9" dur="4s" repeatCount="indefinite"/></use>
  <use href="#plank" x="1080" y="250"><animate attributeName="opacity" values="0.3;1;0.3" dur="3.5s" repeatCount="indefinite"/></use>
  <use href="#plank" x="1140" y="620"><animate attributeName="opacity" values="1;0.3;1" dur="4.5s" repeatCount="indefinite"/></use>
  <use href="#plank" x="1200" y="340"><animate attributeName="opacity" values="0.5;1;0.5" dur="5s" repeatCount="indefinite"/></use>
  <use href="#plank" x="1260" y="440"><animate attributeName="opacity" values="0.8;0.2;0.8" dur="3.2s" repeatCount="indefinite"/></use>
  <use href="#plank" x="1320" y="280"><animate attributeName="opacity" values="0.2;0.8;0.2" dur="4.1s" repeatCount="indefinite"/></use>
  <use href="#plank" x="1380" y="560"><animate attributeName="opacity" values="0.6;1;0.6" dur="3.8s" repeatCount="indefinite"/></use>
  <use href="#plank" x="1440" y="380"><animate attributeName="opacity" values="1;0.4;1" dur="4.7s" repeatCount="indefinite"/></use>
  <use href="#plank" x="1500" y="480"><animate attributeName="opacity" values="0.3;0.9;0.3" dur="5.2s" repeatCount="indefinite"/></use>
  <use href="#plank" x="980"  y="500"><animate attributeName="opacity" values="0.7;0.2;0.7" dur="3.3s" repeatCount="indefinite"/></use>
  <use href="#plank" x="1120" y="200"><animate attributeName="opacity" values="0.4;1;0.4" dur="4.4s" repeatCount="indefinite"/></use>
  <use href="#plank" x="1240" y="700"><animate attributeName="opacity" values="1;0.5;1" dur="3.7s" repeatCount="indefinite"/></use>
  <use href="#plank" x="1400" y="180"><animate attributeName="opacity" values="0.2;0.7;0.2" dur="5.6s" repeatCount="indefinite"/></use>
  <use href="#plank" x="1540" y="300"><animate attributeName="opacity" values="0.5;1;0.5" dur="4.2s" repeatCount="indefinite"/></use>
</g>

<!-- Fossils on seabed -->
<g transform="translate(1080,740)" fill="#8a7a5c">
  <rect x="-20" y="-3" width="40" height="6"/>
  <rect x="-24" y="-6" width="4" height="4"/>
  <rect x="-24" y="2" width="4" height="4"/>
  <rect x="20" y="-6" width="4" height="4"/>
  <rect x="20" y="2" width="4" height="4"/>
  <rect x="-8" y="-8" width="16" height="2" fill="#6a5b3e"/>
  <rect x="-8" y="6" width="16" height="2" fill="#6a5b3e"/>
</g>
<g transform="translate(1460,760)" fill="#b5a482">
  <rect x="-30" y="-3" width="60" height="6"/>
  <rect x="-34" y="-2" width="6" height="4"/>
  <rect x="-40" y="-1" width="6" height="2" fill="#8a7a5c"/>
</g>

<!-- ===================== CENTER FOREGROUND ===================== -->

<!-- Data particles -->
<g fill="#00ffd5">
  <rect x="200" y="100" width="2" height="2" opacity="0.7">
    <animate attributeName="y" values="100;200;100" dur="12s" repeatCount="indefinite"/>
  </rect>
  <rect x="500" y="150" width="2" height="2" opacity="0.6">
    <animate attributeName="x" values="500;560;500" dur="14s" repeatCount="indefinite"/>
  </rect>
  <rect x="820" y="120" width="2" height="2" opacity="0.5">
    <animate attributeName="y" values="120;180;120" dur="10s" repeatCount="indefinite"/>
  </rect>
  <rect x="1100" y="140" width="2" height="2" opacity="0.7">
    <animate attributeName="x" values="1100;1040;1100" dur="13s" repeatCount="indefinite"/>
  </rect>
  <rect x="1360" y="110" width="2" height="2" opacity="0.6">
    <animate attributeName="y" values="110;170;110" dur="11s" repeatCount="indefinite"/>
  </rect>
</g>
<g fill="#ff00aa">
  <rect x="300" y="200" width="2" height="2" opacity="0.5">
    <animate attributeName="y" values="200;240;200" dur="9s" repeatCount="indefinite"/>
  </rect>
  <rect x="700" y="180" width="2" height="2" opacity="0.4">
    <animate attributeName="x" values="700;760;700" dur="12s" repeatCount="indefinite"/>
  </rect>
  <rect x="1250" y="200" width="2" height="2" opacity="0.5">
    <animate attributeName="y" values="200;250;200" dur="10s" repeatCount="indefinite"/>
  </rect>
</g>

<!-- Static ammonite fossil -->
<g transform="translate(940,700)">
  <g fill="#b5a482">
    <rect x="-6" y="-34" width="12" height="6"/>
    <rect x="-14" y="-28" width="6" height="6"/>
    <rect x="8"  y="-28" width="6" height="6"/>
    <rect x="-20" y="-22" width="6" height="6"/>
    <rect x="14" y="-22" width="6" height="6"/>
    <rect x="-24" y="-16" width="6" height="6"/>
    <rect x="18" y="-16" width="6" height="6"/>
    <rect x="-26" y="-10" width="6" height="8"/>
    <rect x="20" y="-10" width="6" height="8"/>
    <rect x="-26" y="-2" width="6" height="6"/>
    <rect x="20" y="-2" width="6" height="6"/>
    <rect x="-24" y="4" width="6" height="6"/>
    <rect x="18" y="4" width="6" height="6"/>
    <rect x="-20" y="10" width="6" height="6"/>
    <rect x="14" y="10" width="6" height="6"/>
    <rect x="-14" y="16" width="6" height="6"/>
    <rect x="8" y="16" width="6" height="6"/>
    <rect x="-6" y="22" width="12" height="6"/>
  </g>
  <g fill="#e8d8a8">
    <rect x="-40" y="-30" width="2" height="2" opacity="0.6">
      <animate attributeName="y" values="-30;-40;-30" dur="6s" repeatCount="indefinite"/>
    </rect>
    <rect x="40" y="-10" width="2" height="2" opacity="0.5">
      <animate attributeName="x" values="40;50;40" dur="7s" repeatCount="indefinite"/>
    </rect>
    <rect x="-30" y="20" width="2" height="2" opacity="0.4">
      <animate attributeName="y" values="20;12;20" dur="5s" repeatCount="indefinite"/>
    </rect>
  </g>
</g>

<!-- Carnivorous plant: batang & daun STATIS, hanya kepala yang sway -->
<g transform="translate(240, 600)">

  <!-- Batang (statis, menancap di air/tanah) -->
  <g fill="#3f6a26">
    <rect x="-3" y="-110" width="6" height="110"/>
  </g>
  <g fill="#2a4a1a">
    <rect x="-3" y="-110" width="2" height="110"/>
  </g>

  <!-- Daun (statis) -->
  <g fill="#4a7a2c">
    <rect x="3" y="-80" width="20" height="4"/>
    <rect x="23" y="-84" width="4" height="8"/>
    <rect x="-23" y="-60" width="20" height="4"/>
    <rect x="-27" y="-64" width="4" height="8"/>
    <rect x="3" y="-30" width="16" height="4"/>
    <rect x="19" y="-34" width="4" height="8"/>
  </g>

  <!-- Kepala (hanya ini yang bergerak, pivot di puncak batang) -->
  <g>
    <animateTransform attributeName="transform" type="rotate"
      values="-2 0 -110; 2 0 -110; -2 0 -110"
      dur="4s" repeatCount="indefinite"/>
    <g transform="translate(0, -110)">

      <!-- Upper jaw -->
      <g fill="#5a8a34">
        <rect x="-32" y="-14" width="64" height="14"/>
        <rect x="-28" y="-18" width="56" height="4"/>
        <rect x="-24" y="-22" width="48" height="4"/>
      </g>
      <g fill="#c8e8a0">
        <rect x="-28" y="-2" width="3" height="8"/>
        <rect x="-20" y="-2" width="3" height="8"/>
        <rect x="-12" y="-2" width="3" height="8"/>
        <rect x="-4"  y="-2" width="3" height="8"/>
        <rect x="4"   y="-2" width="3" height="8"/>
        <rect x="12"  y="-2" width="3" height="8"/>
        <rect x="20"  y="-2" width="3" height="8"/>
      </g>
      <rect x="-2" y="-14" width="4" height="14" fill="#2a4a1a"/>

      <!-- Lower jaw (membuka-menutup pelan) -->
      <g>
        <animateTransform attributeName="transform" type="rotate"
          values="0 -32 0; -8 -32 0; 0 -32 0"
          dur="3s" repeatCount="indefinite"/>
        <g transform="translate(-32,0)" fill="#4a7a2c">
          <rect x="0" y="0" width="64" height="14"/>
          <rect x="4" y="14" width="56" height="4"/>
          <rect x="8" y="18" width="48" height="4"/>
        </g>
        <g transform="translate(-32,0)" fill="#c8e8a0">
          <rect x="4"  y="-6" width="3" height="8"/>
          <rect x="12" y="-6" width="3" height="8"/>
          <rect x="20" y="-6" width="3" height="8"/>
          <rect x="28" y="-6" width="3" height="8"/>
          <rect x="36" y="-6" width="3" height="8"/>
          <rect x="44" y="-6" width="3" height="8"/>
          <rect x="52" y="-6" width="3" height="8"/>
        </g>
        <rect x="-24" y="4" width="48" height="6" fill="#3a0a1a" opacity="0.9"/>
        <rect x="-16" y="6" width="32" height="4" fill="#ff00aa" opacity="0.35">
          <animate attributeName="opacity" values="0.15;0.5;0.15" dur="3s" repeatCount="indefinite"/>
        </rect>
      </g>
    </g>
  </g>
</g>

<!-- ===================== NAME ===================== -->
<g font-family="'Courier New', Consolas, monospace" font-weight="bold"
   text-anchor="middle" letter-spacing="12">
  <text x="800" y="170" font-size="86" fill="#ff00aa" opacity="0.55"
        transform="translate(-3,0)" style="filter:blur(0.4px)">VYNJUSTHUMANT</text>
  <text x="800" y="170" font-size="86" fill="#00ffd5" opacity="0.55"
        transform="translate(3,0)" style="filter:blur(0.4px)">VYNJUSTHUMANT</text>
  <text x="800" y="170" font-size="86" fill="#e8f8ff"
        filter="url(#nameGlow)">VYNJUSTHUMANT</text>
  <text x="800" y="212" font-size="15" fill="#7fd0e0" letter-spacing="9" opacity="0.9">
    ⟢ DIFFERENTIABLE // PALEO ⟣
  </text>
  <text x="800" y="236" font-size="11" fill="#39ff14" letter-spacing="6" opacity="0.8">
    [ PHYSICS × PYTORCH · SECTOR 16-BIT ]
  </text>
</g>

<!-- ===================== CRT OVERLAYS ===================== -->
<rect width="1600" height="800" fill="url(#scanlines)" opacity="0.55">
  <animate attributeName="opacity" values="0.45;0.62;0.45" dur="7s" repeatCount="indefinite"/>
</rect>
<rect width="1600" height="800" fill="url(#dither)" opacity="0.5"/>
<rect width="1600" height="800" fill="#e8f8ff" opacity="0">
  <animate attributeName="opacity"
    values="0;0;0;0;0.05;0;0;0;0;0;0;0;0;0.03;0;0;0;0;0;0;0;0.04;0;0"
    dur="8s" repeatCount="indefinite"/>
</rect>
<rect width="1600" height="800" fill="url(#vignette)"/>
<rect x="0" y="0" width="1600" height="2" fill="#00ffd5" opacity="0.35"/>
<rect x="0" y="798" width="1600" height="2" fill="#ff00aa" opacity="0.28"/>

</svg>
       
